<svg width="36" height="35" viewBox="0 0 36 35" fill="none" xmlns="http://www.w3.org/2000/svg">
<path d="M20.595 30.6248C20.3313 31.0668 19.9528 31.4337 19.4973 31.6887C19.0419 31.9438 18.5256 32.078 18 32.078C17.4744 32.078 16.9581 31.9438 16.5027 31.6887C16.0472 31.4337 15.6687 31.0668 15.405 30.6248M27 11.6665C27 9.34586 26.0518 7.12026 24.364 5.47932C22.6761 3.83838 20.3869 2.9165 18 2.9165C15.6131 2.9165 13.3239 3.83838 11.636 5.47932C9.94821 7.12026 9 9.34586 9 11.6665C9 21.8748 4.5 24.7915 4.5 24.7915H31.5C31.5 24.7915 27 21.8748 27 11.6665Z" stroke="#1E1E1E" stroke-width="2" stroke-linecap="round" stroke-linejoin="round"/>
</svg>
