<svg width="235" height="235" viewBox="0 0 235 235" fill="none" xmlns="http://www.w3.org/2000/svg">
<path d="M117.5 68.5417C117.5 58.154 113.373 48.1918 106.028 40.8466C98.6831 33.5015 88.7209 29.375 78.3333 29.375H19.5833V176.25H88.1249C95.9157 176.25 103.387 179.345 108.896 184.854C114.405 190.363 117.5 197.834 117.5 205.625M117.5 68.5417V205.625M117.5 68.5417C117.5 58.154 121.626 48.1918 128.972 40.8466C136.317 33.5015 146.279 29.375 156.667 29.375H215.417V176.25H146.875C139.084 176.25 131.613 179.345 126.104 184.854C120.595 190.363 117.5 197.834 117.5 205.625" stroke="white" stroke-width="4" stroke-linecap="round" stroke-linejoin="round"/>
</svg>
