<svg width="73" height="31" viewBox="0 0 73 31" fill="none" xmlns="http://www.w3.org/2000/svg">
<rect width="73" height="31" fill="#1E1E1E"/>
<g clip-path="url(#clip0_1_2)">
<rect width="1920" height="1081" transform="translate(-911 -546)" fill="#FDFAE7"/>
<g clip-path="url(#clip1_1_2)">
<path d="M-761 -8C-761 -16.8366 -753.837 -24 -745 -24H77C85.8365 -24 93 -16.8366 93 -8V132C93 140.837 85.8365 148 77 148H-745C-753.837 148 -761 140.837 -761 132V-8Z" fill="#FEFFFA"/>
<path d="M8 0.5H65C69.1421 0.5 72.5 3.85786 72.5 8V23C72.5 27.1421 69.1421 30.5 65 30.5H8C3.85786 30.5 0.5 27.1421 0.5 23V8C0.5 3.85786 3.85786 0.5 8 0.5Z" fill="white" stroke="black"/>
<path d="M35.1477 21V9.36364H42.7159V11.1307H37.2557V14.2898H42.3239V16.0568H37.2557V19.233H42.7614V21H35.1477ZM48.0142 21.1534C47.3286 21.1534 46.715 20.9773 46.1733 20.625C45.6316 20.2727 45.2036 19.7614 44.8892 19.0909C44.5748 18.4205 44.4176 17.6061 44.4176 16.6477C44.4176 15.678 44.5767 14.8598 44.8949 14.1932C45.2169 13.5227 45.6506 13.017 46.196 12.6761C46.7415 12.3314 47.3494 12.1591 48.0199 12.1591C48.5313 12.1591 48.9517 12.2462 49.2812 12.4205C49.6108 12.5909 49.8722 12.7973 50.0653 13.0398C50.2585 13.2784 50.4081 13.5038 50.5142 13.7159H50.5994V9.36364H52.6619V21H50.6392V19.625H50.5142C50.4081 19.8371 50.2547 20.0625 50.054 20.3011C49.8532 20.536 49.5881 20.7367 49.2585 20.9034C48.929 21.0701 48.5142 21.1534 48.0142 21.1534ZM48.5881 19.4659C49.0237 19.4659 49.3949 19.3485 49.7017 19.1136C50.0085 18.875 50.2415 18.5436 50.4006 18.1193C50.5597 17.6951 50.6392 17.2008 50.6392 16.6364C50.6392 16.072 50.5597 15.5814 50.4006 15.1648C50.2453 14.7481 50.0142 14.4242 49.7074 14.1932C49.4044 13.9621 49.0313 13.8466 48.5881 13.8466C48.1297 13.8466 47.7472 13.9659 47.4403 14.2045C47.1335 14.4432 46.9025 14.7727 46.7472 15.1932C46.5919 15.6136 46.5142 16.0947 46.5142 16.6364C46.5142 17.1818 46.5919 17.6686 46.7472 18.0966C46.9063 18.5208 47.1392 18.8561 47.446 19.1023C47.7566 19.3447 48.1373 19.4659 48.5881 19.4659ZM54.8537 21V12.2727H56.9105V21H54.8537ZM55.8878 11.0341C55.562 11.0341 55.2817 10.9261 55.0469 10.7102C54.812 10.4905 54.6946 10.2273 54.6946 9.92045C54.6946 9.60985 54.812 9.34659 55.0469 9.13068C55.2817 8.91098 55.562 8.80114 55.8878 8.80114C56.2173 8.80114 56.4976 8.91098 56.7287 9.13068C56.9635 9.34659 57.081 9.60985 57.081 9.92045C57.081 10.2273 56.9635 10.4905 56.7287 10.7102C56.4976 10.9261 56.2173 11.0341 55.8878 11.0341ZM63.3835 12.2727V13.8636H58.3665V12.2727H63.3835ZM59.6051 10.1818H61.6619V18.375C61.6619 18.6515 61.7036 18.8636 61.7869 19.0114C61.8741 19.1553 61.9877 19.2538 62.1278 19.3068C62.268 19.3598 62.4233 19.3864 62.5938 19.3864C62.7225 19.3864 62.84 19.3769 62.946 19.358C63.0559 19.339 63.1392 19.322 63.196 19.3068L63.5426 20.9148C63.4328 20.9527 63.2756 20.9943 63.071 21.0398C62.8703 21.0852 62.6241 21.1117 62.3324 21.1193C61.8172 21.1345 61.3532 21.0568 60.9403 20.8864C60.5275 20.7121 60.1998 20.4432 59.9574 20.0795C59.7188 19.7159 59.6013 19.2614 59.6051 18.7159V10.1818Z" fill="black"/>
<g clip-path="url(#clip2_1_2)">
<path d="M16.7083 9.16668H11.1666C10.7467 9.16668 10.3439 9.3335 10.047 9.63043C9.75007 9.92736 9.58325 10.3301 9.58325 10.75V21.8333C9.58325 22.2533 9.75007 22.656 10.047 22.9529C10.3439 23.2499 10.7467 23.4167 11.1666 23.4167H22.2499C22.6698 23.4167 23.0726 23.2499 23.3695 22.9529C23.6664 22.656 23.8333 22.2533 23.8333 21.8333V16.2917M22.6458 7.97918C22.9607 7.66424 23.3879 7.4873 23.8333 7.4873C24.2787 7.4873 24.7058 7.66424 25.0208 7.97918C25.3357 8.29413 25.5126 8.72128 25.5126 9.16668C25.5126 9.61208 25.3357 10.0392 25.0208 10.3542L17.4999 17.875L14.3333 18.6667L15.1249 15.5L22.6458 7.97918Z" stroke="black" stroke-width="2" stroke-linecap="round" stroke-linejoin="round"/>
</g>
</g>
<path d="M-745 -23.5H77C85.5604 -23.5 92.5 -16.5604 92.5 -8V132C92.5 140.56 85.5604 147.5 77 147.5H-745C-753.56 147.5 -760.5 140.56 -760.5 132V-8C-760.5 -16.5604 -753.56 -23.5 -745 -23.5Z" stroke="#535F24"/>
</g>
<defs>
<clipPath id="clip0_1_2">
<rect width="1920" height="1081" fill="white" transform="translate(-911 -546)"/>
</clipPath>
<clipPath id="clip1_1_2">
<path d="M-761 -8C-761 -16.8366 -753.837 -24 -745 -24H77C85.8365 -24 93 -16.8366 93 -8V132C93 140.837 85.8365 148 77 148H-745C-753.837 148 -761 140.837 -761 132V-8Z" fill="white"/>
</clipPath>
<clipPath id="clip2_1_2">
<rect width="19" height="19" fill="white" transform="translate(8 6)"/>
</clipPath>
</defs>
</svg>
