<svg width="38" height="39" viewBox="0 0 38 39" fill="none" xmlns="http://www.w3.org/2000/svg">
<path d="M17.417 6.49988H6.33366C5.49381 6.49988 4.68835 6.84229 4.09449 7.45178C3.50062 8.06128 3.16699 8.88793 3.16699 9.74988V32.4999C3.16699 33.3618 3.50062 34.1885 4.09449 34.798C4.68835 35.4075 5.49381 35.7499 6.33366 35.7499H28.5003C29.3402 35.7499 30.1456 35.4075 30.7395 34.798C31.3334 34.1885 31.667 33.3618 31.667 32.4999V21.1249M29.292 4.06238C29.9219 3.41591 30.7762 3.05273 31.667 3.05273C32.5578 3.05273 33.4121 3.41591 34.042 4.06238C34.6719 4.70885 35.0258 5.58564 35.0258 6.49988C35.0258 7.41412 34.6719 8.29091 34.042 8.93738L19.0003 24.3749L12.667 25.9999L14.2503 19.4999L29.292 4.06238Z" stroke="#1E1E1E" stroke-width="3" stroke-linecap="round" stroke-linejoin="round"/>
</svg>
