<svg width="22" height="23" viewBox="0 0 22 23" fill="none" xmlns="http://www.w3.org/2000/svg">
<path d="M20.1666 11.5H14.6666L12.8333 14.375H9.16659L7.33325 11.5H1.83325M20.1666 11.5V17.25C20.1666 17.7583 19.9734 18.2458 19.6296 18.6053C19.2858 18.9647 18.8195 19.1666 18.3333 19.1666H3.66659C3.18036 19.1666 2.71404 18.9647 2.37022 18.6053C2.02641 18.2458 1.83325 17.7583 1.83325 17.25V11.5M20.1666 11.5L17.0041 4.89706C16.8523 4.57773 16.6183 4.309 16.3285 4.12108C16.0386 3.93316 15.7043 3.8335 15.3633 3.83331H6.63659C6.29551 3.8335 5.96124 3.93316 5.67138 4.12108C5.38151 4.309 5.14753 4.57773 4.99575 4.89706L1.83325 11.5" stroke="#8FA053" stroke-width="2" stroke-linecap="round" stroke-linejoin="round"/>
</svg>
