<svg width="49" height="49" viewBox="0 0 49 49" fill="none" xmlns="http://www.w3.org/2000/svg">
<g clip-path="url(#clip0_947_961)">
<path d="M16.1389 38.2209L32.1373 38.4456C39.8685 38.5542 46.2239 32.3748 46.3325 24.6436C46.4411 16.9124 40.2617 10.557 32.5305 10.4484L16.5321 10.2237C8.80083 10.1151 2.44542 16.2945 2.33683 24.0257C2.22825 31.7569 8.40763 38.1124 16.1389 38.2209Z" stroke="white" stroke-width="4" stroke-linecap="round" stroke-linejoin="round"/>
<path d="M16.4197 18.2229C13.1063 18.1764 10.3826 20.8247 10.336 24.1381C10.2895 27.4514 12.9378 30.1752 16.2512 30.2217C19.5646 30.2683 22.2883 27.62 22.3349 24.3066C22.3814 20.9932 19.7331 18.2695 16.4197 18.2229Z" stroke="white" stroke-width="4" stroke-linecap="round" stroke-linejoin="round"/>
</g>
<defs>
<clipPath id="clip0_947_961">
<rect width="48" height="48" fill="white" transform="translate(47.9953 48.6693) rotate(-179.195)"/>
</clipPath>
</defs>
</svg>
