<svg width="33" height="35" viewBox="0 0 33 35" fill="none" xmlns="http://www.w3.org/2000/svg">
<path d="M23.375 30.625V27.7083C23.375 26.1612 22.7955 24.6775 21.7641 23.5835C20.7326 22.4896 19.3337 21.875 17.875 21.875H6.875C5.41631 21.875 4.01736 22.4896 2.98591 23.5835C1.95446 24.6775 1.375 26.1612 1.375 27.7083V30.625M31.625 30.625V27.7083C31.6241 26.4159 31.2185 25.1603 30.4719 24.1388C29.7253 23.1173 28.6799 22.3877 27.5 22.0646M22 4.56458C23.1831 4.88586 24.2317 5.61561 24.9805 6.63879C25.7293 7.66197 26.1358 8.92038 26.1358 10.2156C26.1358 11.5109 25.7293 12.7693 24.9805 13.7925C24.2317 14.8156 23.1831 15.5454 22 15.8667M17.875 10.2083C17.875 13.43 15.4126 16.0417 12.375 16.0417C9.33743 16.0417 6.875 13.43 6.875 10.2083C6.875 6.98667 9.33743 4.375 12.375 4.375C15.4126 4.375 17.875 6.98667 17.875 10.2083Z" stroke="#1E1E1E" stroke-width="2" stroke-linecap="round" stroke-linejoin="round"/>
</svg>
