<svg width="119" height="31" viewBox="0 0 119 31" fill="none" xmlns="http://www.w3.org/2000/svg">
<rect width="119" height="31" fill="#1E1E1E"/>
<g clip-path="url(#clip0_1_2)">
<rect width="1920" height="1081" transform="translate(-1667 -546)" fill="#FDFAE7"/>
<path d="M-624 -23.5H124C132.56 -23.5 139.5 -16.5604 139.5 -8V132C139.5 140.56 132.56 147.5 124 147.5H-624C-632.56 147.5 -639.5 140.56 -639.5 132V-8C-639.5 -16.5604 -632.56 -23.5 -624 -23.5Z" fill="white" stroke="#535F24"/>
<path d="M8 0.5H111C115.142 0.5 118.5 3.85786 118.5 8V23C118.5 27.1421 115.142 30.5 111 30.5H8C3.85786 30.5 0.5 27.1421 0.5 23V8C0.5 3.85786 3.85786 0.5 8 0.5Z" fill="white" stroke="black"/>
<path d="M13.7045 9.36364L16.733 18.5227H16.8523L19.875 9.36364H22.1932L18.0909 21H15.4886L11.392 9.36364H13.7045ZM23.6349 21V12.2727H25.6918V21H23.6349ZM24.669 11.0341C24.3433 11.0341 24.063 10.9261 23.8281 10.7102C23.5933 10.4905 23.4759 10.2273 23.4759 9.92045C23.4759 9.60985 23.5933 9.34659 23.8281 9.13068C24.063 8.91098 24.3433 8.80114 24.669 8.80114C24.9986 8.80114 25.2789 8.91098 25.5099 9.13068C25.7448 9.34659 25.8622 9.60985 25.8622 9.92045C25.8622 10.2273 25.7448 10.4905 25.5099 10.7102C25.2789 10.9261 24.9986 11.0341 24.669 11.0341ZM31.6705 21.1705C30.7955 21.1705 30.0398 20.9886 29.4034 20.625C28.7708 20.2576 28.2841 19.7386 27.9432 19.0682C27.6023 18.3939 27.4318 17.6004 27.4318 16.6875C27.4318 15.7898 27.6023 15.0019 27.9432 14.3239C28.2879 13.642 28.7689 13.1117 29.3864 12.733C30.0038 12.3504 30.7292 12.1591 31.5625 12.1591C32.1004 12.1591 32.608 12.2462 33.0852 12.4205C33.5663 12.5909 33.9905 12.8561 34.358 13.2159C34.7292 13.5758 35.0208 14.0341 35.233 14.5909C35.4451 15.1439 35.5511 15.803 35.5511 16.5682V17.1989H28.3977V15.8125H33.5795C33.5758 15.4186 33.4905 15.0682 33.3239 14.7614C33.1572 14.4508 32.9242 14.2064 32.625 14.0284C32.3295 13.8504 31.9848 13.7614 31.5909 13.7614C31.1705 13.7614 30.8011 13.8636 30.483 14.0682C30.1648 14.2689 29.9167 14.5341 29.7386 14.8636C29.5644 15.1894 29.4754 15.5473 29.4716 15.9375V17.1477C29.4716 17.6553 29.5644 18.0909 29.75 18.4545C29.9356 18.8144 30.1951 19.0909 30.5284 19.2841C30.8617 19.4735 31.2519 19.5682 31.6989 19.5682C31.9981 19.5682 32.2689 19.5265 32.5114 19.4432C32.7538 19.3561 32.964 19.2292 33.142 19.0625C33.3201 18.8958 33.4545 18.6894 33.5455 18.4432L35.4659 18.6591C35.3447 19.1667 35.1136 19.6098 34.7727 19.9886C34.4356 20.3636 34.0038 20.6553 33.4773 20.8636C32.9508 21.0682 32.3485 21.1705 31.6705 21.1705ZM39.0455 21L36.5795 12.2727H38.6761L40.2102 18.4091H40.2898L41.858 12.2727H43.9318L45.5 18.375H45.5852L47.0966 12.2727H49.1989L46.7273 21H44.5852L42.9489 15.1023H42.8295L41.1932 21H39.0455ZM58.6378 21H54.6946V9.36364H58.7173C59.8726 9.36364 60.8651 9.59659 61.6946 10.0625C62.5279 10.5246 63.1681 11.1894 63.6151 12.0568C64.062 12.9242 64.2855 13.9621 64.2855 15.1705C64.2855 16.3826 64.0601 17.4242 63.6094 18.2955C63.1624 19.1667 62.5166 19.8352 61.6719 20.3011C60.831 20.767 59.8196 21 58.6378 21ZM56.8026 19.1761H58.5355C59.3461 19.1761 60.0223 19.0284 60.5639 18.733C61.1056 18.4337 61.5128 17.9886 61.7855 17.3977C62.0582 16.803 62.1946 16.0606 62.1946 15.1705C62.1946 14.2803 62.0582 13.5417 61.7855 12.9545C61.5128 12.3636 61.1094 11.9223 60.5753 11.6307C60.045 11.3352 59.3859 11.1875 58.598 11.1875H56.8026V19.1761ZM70.0611 21.1705C69.1861 21.1705 68.4304 20.9886 67.794 20.625C67.1615 20.2576 66.6747 19.7386 66.3338 19.0682C65.9929 18.3939 65.8224 17.6004 65.8224 16.6875C65.8224 15.7898 65.9929 15.0019 66.3338 14.3239C66.6785 13.642 67.1596 13.1117 67.777 12.733C68.3944 12.3504 69.1198 12.1591 69.9531 12.1591C70.491 12.1591 70.9986 12.2462 71.4759 12.4205C71.9569 12.5909 72.3812 12.8561 72.7486 13.2159C73.1198 13.5758 73.4115 14.0341 73.6236 14.5909C73.8357 15.1439 73.9418 15.803 73.9418 16.5682V17.1989H66.7884V15.8125H71.9702C71.9664 15.4186 71.8812 15.0682 71.7145 14.7614C71.5478 14.4508 71.3149 14.2064 71.0156 14.0284C70.7202 13.8504 70.3755 13.7614 69.9815 13.7614C69.5611 13.7614 69.1918 13.8636 68.8736 14.0682C68.5554 14.2689 68.3073 14.5341 68.1293 14.8636C67.955 15.1894 67.866 15.5473 67.8622 15.9375V17.1477C67.8622 17.6553 67.955 18.0909 68.1406 18.4545C68.3262 18.8144 68.5857 19.0909 68.919 19.2841C69.2524 19.4735 69.6425 19.5682 70.0895 19.5682C70.3887 19.5682 70.6596 19.5265 70.902 19.4432C71.1444 19.3561 71.3546 19.2292 71.5327 19.0625C71.7107 18.8958 71.8452 18.6894 71.9361 18.4432L73.8565 18.6591C73.7353 19.1667 73.5043 19.6098 73.1634 19.9886C72.8262 20.3636 72.3944 20.6553 71.8679 20.8636C71.3414 21.0682 70.7391 21.1705 70.0611 21.1705ZM80.0398 12.2727V13.8636H75.0227V12.2727H80.0398ZM76.2614 10.1818H78.3182V18.375C78.3182 18.6515 78.3598 18.8636 78.4432 19.0114C78.5303 19.1553 78.6439 19.2538 78.7841 19.3068C78.9242 19.3598 79.0795 19.3864 79.25 19.3864C79.3788 19.3864 79.4962 19.3769 79.6023 19.358C79.7121 19.339 79.7955 19.322 79.8523 19.3068L80.1989 20.9148C80.089 20.9527 79.9318 20.9943 79.7273 21.0398C79.5265 21.0852 79.2803 21.1117 78.9886 21.1193C78.4735 21.1345 78.0095 21.0568 77.5966 20.8864C77.1837 20.7121 76.8561 20.4432 76.6136 20.0795C76.375 19.7159 76.2576 19.2614 76.2614 18.7159V10.1818ZM84.2713 21.1761C83.7183 21.1761 83.2202 21.0777 82.777 20.8807C82.3376 20.6799 81.9891 20.3845 81.7315 19.9943C81.4777 19.6042 81.3509 19.1231 81.3509 18.5511C81.3509 18.0587 81.4418 17.6515 81.6236 17.3295C81.8054 17.0076 82.0535 16.75 82.3679 16.5568C82.6823 16.3636 83.0365 16.2178 83.4304 16.1193C83.8281 16.017 84.2391 15.9432 84.6634 15.8977C85.1747 15.8447 85.5895 15.7973 85.9077 15.7557C86.2259 15.7102 86.4569 15.642 86.6009 15.5511C86.7486 15.4564 86.8224 15.3106 86.8224 15.1136V15.0795C86.8224 14.6515 86.6955 14.3201 86.4418 14.0852C86.188 13.8504 85.8224 13.733 85.3452 13.733C84.8414 13.733 84.4418 13.8428 84.1463 14.0625C83.8546 14.2822 83.6577 14.5417 83.5554 14.8409L81.6349 14.5682C81.7865 14.0379 82.0365 13.5947 82.3849 13.2386C82.7334 12.8788 83.1596 12.6098 83.6634 12.4318C84.1671 12.25 84.724 12.1591 85.3338 12.1591C85.7543 12.1591 86.1728 12.2083 86.5895 12.3068C87.0062 12.4053 87.3868 12.5682 87.7315 12.7955C88.0762 13.0189 88.3527 13.3239 88.5611 13.7102C88.7732 14.0966 88.8793 14.5795 88.8793 15.1591V21H86.902V19.8011H86.8338C86.7088 20.0436 86.5327 20.2708 86.3054 20.483C86.0819 20.6913 85.7997 20.8598 85.4588 20.9886C85.1217 21.1136 84.7259 21.1761 84.2713 21.1761ZM84.8054 19.6648C85.2183 19.6648 85.5762 19.5833 85.8793 19.4205C86.1823 19.2538 86.4152 19.0341 86.5781 18.7614C86.7448 18.4886 86.8281 18.1913 86.8281 17.8693V16.8409C86.7637 16.8939 86.6539 16.9432 86.4986 16.9886C86.3471 17.0341 86.1766 17.0739 85.9872 17.108C85.7978 17.142 85.6103 17.1723 85.4247 17.1989C85.2391 17.2254 85.0781 17.2481 84.9418 17.267C84.6349 17.3087 84.3603 17.3769 84.1179 17.4716C83.8755 17.5663 83.6842 17.6989 83.544 17.8693C83.4039 18.036 83.3338 18.2519 83.3338 18.517C83.3338 18.8958 83.4721 19.1818 83.7486 19.375C84.0251 19.5682 84.3774 19.6648 84.8054 19.6648ZM90.9474 21V12.2727H93.0043V21H90.9474ZM91.9815 11.0341C91.6558 11.0341 91.3755 10.9261 91.1406 10.7102C90.9058 10.4905 90.7884 10.2273 90.7884 9.92045C90.7884 9.60985 90.9058 9.34659 91.1406 9.13068C91.3755 8.91098 91.6558 8.80114 91.9815 8.80114C92.3111 8.80114 92.5914 8.91098 92.8224 9.13068C93.0573 9.34659 93.1747 9.60985 93.1747 9.92045C93.1747 10.2273 93.0573 10.4905 92.8224 10.7102C92.5914 10.9261 92.3111 11.0341 91.9815 11.0341ZM97.1761 9.36364V21H95.1193V9.36364H97.1761ZM106.189 14.5795L104.314 14.7841C104.261 14.5947 104.168 14.4167 104.036 14.25C103.907 14.0833 103.732 13.9489 103.513 13.8466C103.293 13.7443 103.024 13.6932 102.706 13.6932C102.278 13.6932 101.918 13.786 101.626 13.9716C101.339 14.1572 101.196 14.3977 101.2 14.6932C101.196 14.947 101.289 15.1534 101.479 15.3125C101.672 15.4716 101.99 15.6023 102.433 15.7045L103.922 16.0227C104.748 16.2008 105.361 16.483 105.763 16.8693C106.168 17.2557 106.373 17.7614 106.376 18.3864C106.373 18.9356 106.212 19.4205 105.893 19.8409C105.579 20.2576 105.142 20.5833 104.581 20.8182C104.02 21.053 103.376 21.1705 102.649 21.1705C101.581 21.1705 100.721 20.947 100.07 20.5C99.4181 20.0492 99.0298 19.4223 98.9048 18.6193L100.911 18.4261C101.001 18.8201 101.195 19.1174 101.49 19.3182C101.786 19.5189 102.17 19.6193 102.643 19.6193C103.132 19.6193 103.524 19.5189 103.82 19.3182C104.119 19.1174 104.268 18.8693 104.268 18.5739C104.268 18.3239 104.172 18.1174 103.979 17.9545C103.789 17.7917 103.494 17.6667 103.092 17.5795L101.604 17.267C100.767 17.0928 100.147 16.7992 99.7457 16.3864C99.3442 15.9697 99.1454 15.4432 99.1491 14.8068C99.1454 14.2689 99.2912 13.803 99.5866 13.4091C99.8859 13.0114 100.301 12.7045 100.831 12.4886C101.365 12.2689 101.981 12.1591 102.678 12.1591C103.7 12.1591 104.505 12.3769 105.092 12.8125C105.683 13.2481 106.049 13.8371 106.189 14.5795Z" fill="black"/>
</g>
<defs>
<clipPath id="clip0_1_2">
<rect width="1920" height="1081" fill="white" transform="translate(-1667 -546)"/>
</clipPath>
</defs>
</svg>
